<?xml version="1.0" standalone="no"?>
<!DOCTYPE svg PUBLIC "-//W3C//DTD SVG 20010904//EN"
 "http://www.w3.org/TR/2001/REC-SVG-20010904/DTD/svg10.dtd">
<svg version="1.0" xmlns="http://www.w3.org/2000/svg"
 width="225.000000pt" height="225.000000pt" viewBox="0 0 225.000000 225.000000"
 preserveAspectRatio="xMidYMid meet">

<g transform="translate(0.000000,225.000000) scale(0.100000,-0.100000)"
fill="#000000" stroke="none">
<path d="M894 1927 c-2 -7 -3 -56 -2 -108 l3 -94 51 -5 c43 -4 55 -11 83 -42
18 -21 39 -38 47 -38 12 0 14 -82 14 -524 l0 -525 -42 24 c-23 13 -66 27 -95
31 -29 3 -53 8 -53 9 0 21 15 30 43 27 18 -2 40 3 51 10 19 15 22 3 -76 316
l-10 33 -101 -3 -101 -3 -45 -147 c-25 -82 -47 -148 -50 -148 -3 0 -17 37 -30
83 -37 125 -28 117 -129 117 -48 0 -92 -4 -98 -8 -16 -10 -108 -317 -101 -336
5 -11 19 -16 51 -16 38 0 45 -3 50 -25 3 -13 19 -34 35 -46 16 -12 27 -27 25
-34 -10 -25 17 -94 46 -119 41 -34 125 -51 182 -36 61 16 95 53 139 146 46
100 74 124 141 124 60 0 108 -19 136 -55 29 -36 28 -58 -3 -89 -52 -52 -15
-136 60 -136 75 0 112 84 60 136 -31 31 -32 53 -3 89 28 36 76 55 136 55 67 0
95 -24 141 -124 62 -132 123 -169 240 -145 72 15 116 57 126 120 5 36 13 48
37 62 16 9 35 31 41 47 10 27 16 30 55 30 30 0 44 5 49 16 3 8 -16 87 -43 175
-55 182 -44 172 -169 167 l-80 -3 -31 -95 -31 -95 -32 105 c-18 58 -38 123
-45 145 l-13 40 -100 3 -101 3 -10 -33 c-98 -313 -95 -301 -76 -315 11 -8 35
-13 54 -11 29 2 36 -1 38 -17 2 -18 -3 -20 -62 -21 -49 -1 -75 -7 -110 -27
l-46 -26 0 514 0 514 50 50 c44 44 55 50 97 53 l48 3 0 105 0 105 -218 3
c-175 2 -218 0 -223 -11z m391 -97 l0 -55 -170 0 -170 0 -3 44 c-5 74 -12 72
175 69 l168 -3 0 -55z m-135 -125 c-7 -8 -23 -15 -35 -15 -12 0 -28 7 -35 15
-11 13 -6 15 35 15 41 0 46 -2 35 -15z m-250 -827 c18 -62 35 -119 38 -125 3
-10 -26 -13 -127 -13 -89 0 -131 4 -131 11 0 6 16 62 36 125 l35 114 58 0 57
0 34 -112z m644 -2 c20 -63 36 -119 36 -125 0 -7 -42 -11 -131 -11 -101 0
-130 3 -127 13 3 6 20 63 38 125 l34 112 57 0 58 0 35 -114z m-1003 -113 l35
-118 -124 -3 c-69 -1 -127 0 -129 2 -5 4 53 209 64 229 2 4 30 7 61 7 l58 0
35 -117z m1357 -1 c19 -62 32 -115 29 -118 -2 -2 -60 -3 -129 -2 l-124 3 35
118 36 118 59 -3 60 -3 34 -113z m-1173 -116 c11 -17 29 -35 40 -40 20 -8 18
-13 -27 -102 -56 -107 -84 -134 -140 -134 -109 0 -170 86 -97 139 16 12 34 33
39 47 8 20 16 24 54 24 49 0 57 10 44 55 -13 47 -11 51 30 47 28 -3 42 -11 57
-36z m114 18 c-14 -17 -41 -18 -57 -2 -20 20 -14 24 28 20 33 -3 39 -7 29 -18z
m641 1 c-16 -19 -44 -19 -59 -1 -10 12 -6 15 26 18 47 4 49 2 33 -17z m132
-27 c-13 -49 -6 -58 44 -58 37 0 46 -4 53 -22 5 -13 18 -32 30 -42 23 -21 28
-65 10 -98 -25 -47 -136 -64 -183 -27 -15 12 -47 61 -72 110 -39 80 -42 90
-27 95 34 11 48 21 68 52 14 21 30 32 50 34 36 4 39 -1 27 -44z m-1140 -78
c-18 -15 -28 -17 -43 -10 -32 17 -22 30 24 30 l42 -1 -23 -19z m1368 10 c0 -5
-9 -14 -19 -20 -15 -7 -25 -5 -43 10 l-23 19 43 1 c23 0 42 -4 42 -10z m-705
-180 c0 -29 -32 -41 -41 -16 -9 24 4 48 23 44 12 -2 18 -12 18 -28z"/>
</g>
</svg>
